<svg width="24" height="24" viewBox="0 0 24 24" fill="none" xmlns="http://www.w3.org/2000/svg">
<path d="M10.8889 6.44444H17.5556V8.66667H10.8889V6.44444ZM10.8889 10.8889H17.5556V13.1111H10.8889V10.8889ZM10.8889 15.3333H17.5556V17.5556H10.8889V15.3333ZM6.44444 6.44444H8.66667V8.66667H6.44444V6.44444ZM6.44444 10.8889H8.66667V13.1111H6.44444V10.8889ZM6.44444 15.3333H8.66667V17.5556H6.44444V15.3333ZM21 2H3C2.44444 2 2 2.44444 2 3V21C2 21.4444 2.44444 22 3 22H21C21.4444 22 22 21.4444 22 21V3C22 2.44444 21.4444 2 21 2ZM19.7778 19.7778H4.22222V4.22222H19.7778V19.7778Z" fill="#637381"/>
<path opacity="0.32" d="M4.22266 19.7777H19.7782V4.22217H4.22266V19.7777ZM10.8893 6.44439H17.556V8.66661H10.8893V6.44439ZM10.8893 10.8888H17.556V13.1111H10.8893V10.8888ZM10.8893 15.3333H17.556V17.5555H10.8893V15.3333ZM6.44488 6.44439H8.6671V8.66661H6.44488V6.44439ZM6.44488 10.8888H8.6671V13.1111H6.44488V10.8888ZM6.44488 15.3333H8.6671V17.5555H6.44488V15.3333Z" fill="#637381"/>
</svg>
